<?xml version="1.0" standalone="no"?>
<!DOCTYPE svg PUBLIC "-//W3C//DTD SVG 20010904//EN"
 "http://www.w3.org/TR/2001/REC-SVG-20010904/DTD/svg10.dtd">
<svg version="1.0" xmlns="http://www.w3.org/2000/svg"
 width="512.000000pt" height="512.000000pt" viewBox="0 0 512.000000 512.000000"
 preserveAspectRatio="xMidYMid meet">
<metadata>
Created by potrace 1.14, written by Peter Selinger 2001-2017
</metadata>
<g transform="translate(0.000000,512.000000) scale(0.100000,-0.100000)"
fill="#000000" stroke="none">
<path d="M1485 4729 c-144 -21 -249 -99 -325 -240 l-32 -60 -34 21 c-19 12
-34 18 -34 13 0 -4 -4 -2 -9 5 -4 7 -17 15 -27 17 -10 2 -19 4 -19 5 0 3 -41
11 -77 14 -21 2 -38 0 -38 -3 0 -3 -17 -7 -38 -8 -20 0 -50 -7 -67 -14 -16 -7
-33 -12 -37 -11 -5 1 -8 -3 -8 -9 0 -5 -4 -8 -9 -5 -5 3 -11 -1 -15 -9 -3 -8
-10 -15 -16 -15 -13 0 -70 -57 -70 -70 0 -5 -6 -13 -14 -17 -8 -4 -15 -11 -15
-16 0 -4 -8 -21 -16 -37 -9 -17 -13 -30 -10 -30 3 0 -1 -16 -9 -35 -8 -19 -12
-35 -8 -35 4 0 8 -9 8 -20 0 -11 -3 -20 -7 -20 -6 0 -4 -18 6 -75 2 -11 4 -22
6 -25 1 -3 3 -9 4 -15 9 -34 18 -55 26 -55 5 0 9 -9 9 -19 0 -11 3 -21 8 -23
4 -1 42 -73 85 -158 43 -85 106 -209 140 -275 33 -66 62 -126 63 -133 1 -8 10
-22 18 -31 9 -10 16 -20 16 -23 0 -3 -37 -21 -82 -39 -385 -152 -676 -395
-734 -611 -57 -217 48 -416 323 -614 149 -107 330 -196 568 -280 77 -27 119
-47 119 -56 -1 -7 -5 -26 -8 -43 -3 -16 -10 -55 -16 -85 -6 -30 -12 -64 -14
-75 -25 -132 -37 -432 -22 -565 27 -255 126 -441 277 -524 134 -74 320 -67
534 21 117 48 176 80 313 170 105 69 115 74 131 59 10 -9 23 -16 29 -16 7 0
12 -5 12 -12 0 -6 3 -8 7 -5 3 4 12 2 20 -4 19 -17 111 -36 158 -33 83 4 157
31 200 72 34 31 48 30 100 -8 150 -108 312 -196 445 -240 52 -18 106 -34 120
-37 335 -61 541 88 615 442 46 225 36 489 -31 824 -8 40 -13 75 -12 76 2 1 34
12 73 24 463 148 825 402 918 645 26 69 28 80 28 161 -2 276 -307 548 -848
755 -18 7 -33 16 -33 21 0 5 45 98 100 208 55 109 100 202 100 206 0 5 6 16
14 24 25 29 58 135 61 197 4 74 -25 169 -73 233 -17 24 -32 41 -32 38 0 -4 -9
2 -20 13 -30 30 -117 70 -161 75 -22 2 -44 7 -49 10 -5 3 -18 1 -29 -5 -18 -9
-22 -4 -41 48 -68 184 -171 293 -315 335 -53 15 -214 17 -270 3 -250 -63 -550
-240 -805 -474 -25 -23 -48 -42 -51 -42 -4 0 -33 24 -66 53 -263 235 -554 403
-788 456 -65 15 -158 19 -220 10z m2177 -238 c52 -25 98 -90 128 -179 l21 -63
-28 -37 c-15 -20 -33 -46 -40 -57 -25 -44 -103 -204 -103 -214 0 -5 -3 -11 -7
-13 -5 -1 -55 -97 -111 -212 l-104 -208 -31 6 c-24 5 -242 36 -253 36 -1 0
-28 35 -60 78 -67 90 -218 271 -297 357 -30 33 -53 64 -50 70 2 5 45 45 96 87
356 299 672 431 839 349z m-1922 -11 c182 -64 424 -217 603 -382 l57 -53 -57
-61 c-105 -111 -192 -216 -297 -355 -61 -82 -59 -81 -171 -94 -27 -3 -66 -8
-85 -11 -79 -11 -106 -15 -130 -19 -23 -4 -30 6 -100 146 -41 83 -96 192 -122
242 -26 51 -48 97 -48 104 0 6 -3 13 -7 15 -15 6 -83 153 -83 177 0 39 30 142
55 190 29 57 68 99 109 117 47 22 195 13 276 -16z m1008 -803 c45 -54 82 -99
82 -100 0 -1 -121 -2 -270 -2 -148 0 -270 1 -270 3 0 7 101 130 166 202 22 25
54 60 70 78 l28 33 57 -58 c30 -32 92 -102 137 -156z m86 -331 c77 -4 149 -9
160 -12 19 -4 122 -148 181 -250 l18 -31 -93 -187 c-50 -102 -96 -184 -100
-181 -4 3 -11 17 -15 32 -22 87 -126 200 -232 251 -214 101 -473 19 -591 -188
-17 -30 -36 -77 -42 -104 -6 -28 -14 -58 -17 -66 -3 -9 -28 30 -61 95 -31 61
-56 112 -57 115 0 3 -7 16 -15 30 -7 14 -27 53 -44 86 l-31 62 45 74 c73 121
162 258 169 259 3 0 15 2 26 5 11 2 85 7 165 10 80 3 146 7 147 8 4 3 253 -2
387 -8z m-1024 -54 c0 -4 -9 -18 -19 -31 l-19 -24 -12 23 c-8 16 -9 25 -1 29
14 9 51 11 51 3z m2327 -201 c374 -146 633 -352 650 -516 5 -46 1 -63 -22
-111 -66 -134 -275 -291 -545 -408 -58 -25 -276 -106 -285 -106 -3 0 -20 48
-38 108 -33 103 -99 286 -117 327 -5 11 -21 47 -35 79 l-25 59 126 256 c69
141 130 263 135 271 5 8 16 30 24 48 9 17 19 32 23 32 5 0 53 -18 109 -39z
m-3071 -24 c52 -108 254 -500 263 -510 5 -7 9 -15 8 -18 -1 -3 6 -21 17 -40
l19 -35 -51 -135 c-28 -74 -67 -186 -88 -249 -20 -63 -40 -118 -44 -123 -7 -8
-186 54 -305 106 -335 149 -555 345 -555 495 0 51 47 142 103 201 60 62 184
153 285 208 88 48 299 143 317 143 6 0 19 -19 31 -43z m2589 -993 c30 -88 55
-164 55 -171 0 -11 -17 -19 -57 -28 -76 -15 -174 -34 -203 -39 -19 -3 -45 -8
-57 -10 l-23 -5 19 37 c10 20 53 109 97 197 43 88 82 162 86 163 4 2 8 11 8
20 0 39 24 -15 75 -164z m-2051 -66 c48 -92 86 -170 86 -173 0 -3 -8 -4 -19 0
-10 3 -34 8 -52 10 -52 8 -198 41 -204 47 -3 3 16 71 42 151 26 81 51 143 55
139 4 -4 45 -82 92 -174z m777 129 c86 -39 244 -47 313 -16 14 7 28 10 31 7 6
-6 -121 -264 -142 -289 -8 -9 -13 -20 -11 -25 4 -15 -22 -54 -35 -54 -7 0 -21
14 -30 30 -10 17 -15 30 -11 30 4 0 0 8 -9 18 -10 10 -14 22 -10 25 3 4 1 7
-6 7 -7 0 -10 4 -7 9 4 5 2 11 -2 13 -10 3 -132 244 -132 259 0 6 3 8 8 6 4
-2 23 -11 43 -20z m1408 -558 c36 -172 45 -270 45 -454 0 -174 -19 -288 -64
-380 -53 -111 -112 -146 -231 -141 -150 7 -353 98 -566 254 l-61 46 29 58 c16
32 30 61 30 65 0 5 5 13 10 19 5 7 42 79 82 160 40 82 80 160 87 174 8 14 15
27 15 30 0 3 9 21 20 40 11 19 20 37 20 40 5 26 49 90 63 91 9 0 26 2 37 5 11
2 40 6 65 9 65 9 347 64 373 74 12 5 23 8 25 6 1 -1 11 -44 21 -96z m-2379 81
c19 -6 49 -13 65 -15 17 -3 64 -12 105 -20 79 -15 109 -21 175 -30 66 -10 69
-12 107 -93 21 -42 101 -200 177 -351 l140 -274 -27 -22 c-40 -33 -191 -129
-253 -160 -56 -29 -171 -74 -202 -81 -10 -2 -27 -6 -37 -9 -10 -3 -47 -6 -82
-7 -132 -2 -200 56 -251 217 -43 132 -52 402 -21 600 28 182 45 255 58 255 6
0 27 -5 46 -10z"/>
</g>
</svg>
